<svg xmlns="http://www.w3.org/2000/svg" viewBox="0 0 15.77 14.99"><defs><style>.cls-1,.cls-2{fill:none;stroke:#000;stroke-miterlimit:10;}.cls-1{stroke-width:0.54px;}.cls-2{stroke-linecap:round;stroke-width:0.26px;}</style></defs><g id="Layer_2" data-name="Layer 2"><g id="Title_Source_Logo" data-name="Title Source Logo"><polygon points="7.38 13.4 7.74 6.11 8.1 6.11 8.46 13.4 7.38 13.4 7.38 13.4"/><polygon points="7.65 4.65 7.92 0 8.19 4.65 7.65 4.65 7.65 4.65"/><polygon points="7.42 5.97 3.27 8.06 7.16 5.51 7.42 5.97 7.42 5.97"/><polygon points="8.69 5.51 12.58 8.06 8.42 5.97 8.69 5.51 8.69 5.51"/><circle class="cls-1" cx="7.92" cy="5.38" r="0.73"/><path class="cls-2" d="M6.59,12.3A1.74,1.74,0,0,1,4,12.3H4a1.75,1.75,0,0,0-1.29-.58,1.77,1.77,0,0,0-1.3.58h0a1.76,1.76,0,0,1-1.29.57"/><path class="cls-2" d="M6.59,14.28a1.72,1.72,0,0,1-2.58,0H4a1.75,1.75,0,0,0-1.29-.58,1.77,1.77,0,0,0-1.3.58h0a1.73,1.73,0,0,1-1.29.58"/><path class="cls-2" d="M15.64,12.87a1.76,1.76,0,0,1-1.29-.57h0a1.74,1.74,0,0,0-2.59,0h0a1.74,1.74,0,0,1-2.58,0h0a1.74,1.74,0,0,0-2.59,0"/><path class="cls-2" d="M15.64,14.86a1.73,1.73,0,0,1-1.29-.58h0a1.74,1.74,0,0,0-2.59,0h0a1.72,1.72,0,0,1-2.58,0h0a1.74,1.74,0,0,0-2.59,0"/></g></g></svg>