<svg xmlns="http://www.w3.org/2000/svg" viewBox="0 0 14.41 14.33"><defs><style>.cls-1,.cls-2{fill:none;stroke:#000;stroke-miterlimit:10;}.cls-1{stroke-width:0.51px;}.cls-2{stroke-width:0.26px;}</style></defs><g id="Layer_2" data-name="Layer 2"><g id="Title_Source_Logo" data-name="Title Source Logo"><polygon points="6.7 12.74 7.04 5.8 7.38 5.8 7.72 12.74 6.7 12.74 6.7 12.74"/><polygon points="6.95 4.42 7.21 0 7.46 4.42 6.95 4.42 6.95 4.42"/><polygon points="6.73 5.68 2.78 7.67 6.48 5.24 6.73 5.68 6.73 5.68"/><polygon points="7.93 5.24 11.63 7.67 7.68 5.68 7.93 5.24 7.93 5.24"/><circle class="cls-1" cx="7.21" cy="5.11" r="0.69"/><path class="cls-2" d="M14.36,14.21a16.59,16.59,0,0,0-7.15-1.56A16.59,16.59,0,0,0,.06,14.21"/></g></g></svg>