<svg xmlns="http://www.w3.org/2000/svg" viewBox="0 0 13.44 12.66"><defs><style>.cls-1{fill:none;stroke:#000;stroke-linejoin:round;stroke-width:0.22px;}</style></defs><g id="Layer_2" data-name="Layer 2"><g id="Title_Source_Logo" data-name="Title Source Logo"><polygon class="cls-1" points="11.22 0.11 2.22 0.11 0.11 7.28 13.33 7.28 11.22 0.11"/><rect class="cls-1" x="0.11" y="7.28" width="13.22" height="1.01"/><line class="cls-1" x1="2.22" y1="0.11" x2="0.11" y2="7.28"/><polyline class="cls-1" points="4.47 0.11 3.42 7.28 3.42 8.29"/><polyline class="cls-1" points="6.72 0.11 6.72 7.28 6.72 8.28"/><polyline class="cls-1" points="8.97 0.11 10.03 7.28 10.03 8.24"/><line class="cls-1" x1="13.33" y1="7.28" x2="11.22" y2="0.11"/><rect class="cls-1" x="5.15" y="8.29" width="3.14" height="0.67"/><rect class="cls-1" x="6.27" y="8.96" width="0.9" height="2.91"/><rect class="cls-1" x="5.15" y="11.88" width="3.14" height="0.67"/><line class="cls-1" x1="2.13" y1="12.55" x2="11.54" y2="12.55"/><line class="cls-1" x1="1.24" y1="3.54" x2="12.28" y2="3.54"/></g></g></svg>